<mxfile host="app.diagrams.net" modified="2024-02-26T02:50:26.879Z" agent="Mozilla/5.0 (Windows NT 10.0; Win64; x64) AppleWebKit/537.36 (KHTML, like Gecko) Chrome/121.0.0.0 Safari/537.36" etag="3afjnZMv1oE5tsf-xM3i" version="23.1.6" type="device">
  <diagram name="Page-1" id="x2E1pF80PPcUD90oi35e">
    <mxGraphModel dx="270" dy="529" grid="1" gridSize="10" guides="1" tooltips="1" connect="1" arrows="1" fold="1" page="1" pageScale="1" pageWidth="850" pageHeight="1100" math="0" shadow="0">
      <root>
        <mxCell id="0" />
        <mxCell id="1" parent="0" />
        <mxCell id="7dIJsZSCZo2YdhMTKxo9-1" value="&lt;b&gt;Volunteer&lt;/b&gt;" style="swimlane;fontStyle=0;childLayout=stackLayout;horizontal=1;startSize=30;horizontalStack=0;resizeParent=1;resizeParentMax=0;resizeLast=0;collapsible=1;marginBottom=0;whiteSpace=wrap;html=1;" vertex="1" parent="1">
          <mxGeometry x="60" y="80" width="140" height="150" as="geometry" />
        </mxCell>
        <mxCell id="7dIJsZSCZo2YdhMTKxo9-17" value="ID" style="text;strokeColor=none;fillColor=none;align=left;verticalAlign=middle;spacingLeft=4;spacingRight=4;overflow=hidden;points=[[0,0.5],[1,0.5]];portConstraint=eastwest;rotatable=0;whiteSpace=wrap;html=1;fontStyle=4" vertex="1" parent="7dIJsZSCZo2YdhMTKxo9-1">
          <mxGeometry y="30" width="140" height="30" as="geometry" />
        </mxCell>
        <mxCell id="7dIJsZSCZo2YdhMTKxo9-2" value="Name" style="text;strokeColor=none;fillColor=none;align=left;verticalAlign=middle;spacingLeft=4;spacingRight=4;overflow=hidden;points=[[0,0.5],[1,0.5]];portConstraint=eastwest;rotatable=0;whiteSpace=wrap;html=1;" vertex="1" parent="7dIJsZSCZo2YdhMTKxo9-1">
          <mxGeometry y="60" width="140" height="30" as="geometry" />
        </mxCell>
        <mxCell id="7dIJsZSCZo2YdhMTKxo9-3" value="Address" style="text;strokeColor=none;fillColor=none;align=left;verticalAlign=middle;spacingLeft=4;spacingRight=4;overflow=hidden;points=[[0,0.5],[1,0.5]];portConstraint=eastwest;rotatable=0;whiteSpace=wrap;html=1;" vertex="1" parent="7dIJsZSCZo2YdhMTKxo9-1">
          <mxGeometry y="90" width="140" height="30" as="geometry" />
        </mxCell>
        <mxCell id="7dIJsZSCZo2YdhMTKxo9-4" value="TelephoneNum" style="text;strokeColor=none;fillColor=none;align=left;verticalAlign=middle;spacingLeft=4;spacingRight=4;overflow=hidden;points=[[0,0.5],[1,0.5]];portConstraint=eastwest;rotatable=0;whiteSpace=wrap;html=1;" vertex="1" parent="7dIJsZSCZo2YdhMTKxo9-1">
          <mxGeometry y="120" width="140" height="30" as="geometry" />
        </mxCell>
        <mxCell id="7dIJsZSCZo2YdhMTKxo9-6" value="&lt;b&gt;Task&lt;/b&gt;" style="swimlane;fontStyle=0;childLayout=stackLayout;horizontal=1;startSize=30;horizontalStack=0;resizeParent=1;resizeParentMax=0;resizeLast=0;collapsible=1;marginBottom=0;whiteSpace=wrap;html=1;" vertex="1" parent="1">
          <mxGeometry x="330" y="50" width="140" height="210" as="geometry" />
        </mxCell>
        <mxCell id="7dIJsZSCZo2YdhMTKxo9-7" value="&lt;u&gt;Code&lt;/u&gt;" style="text;strokeColor=none;fillColor=none;align=left;verticalAlign=middle;spacingLeft=4;spacingRight=4;overflow=hidden;points=[[0,0.5],[1,0.5]];portConstraint=eastwest;rotatable=0;whiteSpace=wrap;html=1;" vertex="1" parent="7dIJsZSCZo2YdhMTKxo9-6">
          <mxGeometry y="30" width="140" height="30" as="geometry" />
        </mxCell>
        <mxCell id="7dIJsZSCZo2YdhMTKxo9-8" value="Description" style="text;strokeColor=none;fillColor=none;align=left;verticalAlign=middle;spacingLeft=4;spacingRight=4;overflow=hidden;points=[[0,0.5],[1,0.5]];portConstraint=eastwest;rotatable=0;whiteSpace=wrap;html=1;" vertex="1" parent="7dIJsZSCZo2YdhMTKxo9-6">
          <mxGeometry y="60" width="140" height="30" as="geometry" />
        </mxCell>
        <mxCell id="7dIJsZSCZo2YdhMTKxo9-12" value="&lt;u style=&quot;text-decoration: underline dashed; text-underline-position:under&quot;&gt;Type&lt;/u&gt;" style="text;strokeColor=none;fillColor=none;align=left;verticalAlign=middle;spacingLeft=4;spacingRight=4;overflow=hidden;points=[[0,0.5],[1,0.5]];portConstraint=eastwest;rotatable=0;whiteSpace=wrap;html=1;" vertex="1" parent="7dIJsZSCZo2YdhMTKxo9-6">
          <mxGeometry y="90" width="140" height="30" as="geometry" />
        </mxCell>
        <mxCell id="7dIJsZSCZo2YdhMTKxo9-14" value="Status" style="text;strokeColor=none;fillColor=none;align=left;verticalAlign=middle;spacingLeft=4;spacingRight=4;overflow=hidden;points=[[0,0.5],[1,0.5]];portConstraint=eastwest;rotatable=0;whiteSpace=wrap;html=1;" vertex="1" parent="7dIJsZSCZo2YdhMTKxo9-6">
          <mxGeometry y="120" width="140" height="30" as="geometry" />
        </mxCell>
        <mxCell id="7dIJsZSCZo2YdhMTKxo9-11" value="StartTime" style="text;strokeColor=none;fillColor=none;align=left;verticalAlign=middle;spacingLeft=4;spacingRight=4;overflow=hidden;points=[[0,0.5],[1,0.5]];portConstraint=eastwest;rotatable=0;whiteSpace=wrap;html=1;" vertex="1" parent="7dIJsZSCZo2YdhMTKxo9-6">
          <mxGeometry y="150" width="140" height="30" as="geometry" />
        </mxCell>
        <mxCell id="7dIJsZSCZo2YdhMTKxo9-13" value="EndTime" style="text;strokeColor=none;fillColor=none;align=left;verticalAlign=middle;spacingLeft=4;spacingRight=4;overflow=hidden;points=[[0,0.5],[1,0.5]];portConstraint=eastwest;rotatable=0;whiteSpace=wrap;html=1;" vertex="1" parent="7dIJsZSCZo2YdhMTKxo9-6">
          <mxGeometry y="180" width="140" height="30" as="geometry" />
        </mxCell>
        <mxCell id="7dIJsZSCZo2YdhMTKxo9-18" value="" style="group" vertex="1" connectable="0" parent="1">
          <mxGeometry x="240" y="130" width="60" height="30" as="geometry" />
        </mxCell>
        <mxCell id="7dIJsZSCZo2YdhMTKxo9-10" value="has" style="text;html=1;align=center;verticalAlign=middle;whiteSpace=wrap;rounded=0;fontStyle=1;fontSize=12;movable=1;resizable=1;rotatable=1;deletable=1;editable=1;locked=0;connectable=1;" vertex="1" parent="7dIJsZSCZo2YdhMTKxo9-18">
          <mxGeometry width="60" height="30" as="geometry" />
        </mxCell>
        <mxCell id="7dIJsZSCZo2YdhMTKxo9-5" value="" style="edgeStyle=entityRelationEdgeStyle;fontSize=12;html=1;endArrow=ERzeroToMany;endFill=1;startArrow=ERzeroToMany;rounded=0;strokeWidth=1;entryX=0;entryY=0.5;entryDx=0;entryDy=0;exitX=1;exitY=0.5;exitDx=0;exitDy=0;movable=1;resizable=1;rotatable=1;deletable=1;editable=1;locked=0;connectable=1;startSize=10;endSize=10;" edge="1" parent="1" source="7dIJsZSCZo2YdhMTKxo9-2" target="7dIJsZSCZo2YdhMTKxo9-12">
          <mxGeometry width="100" height="100" relative="1" as="geometry">
            <mxPoint x="220" y="124" as="sourcePoint" />
            <mxPoint x="350" y="140" as="targetPoint" />
          </mxGeometry>
        </mxCell>
        <mxCell id="7dIJsZSCZo2YdhMTKxo9-19" value="&lt;b&gt;Packing List&lt;/b&gt;" style="swimlane;fontStyle=0;childLayout=stackLayout;horizontal=1;startSize=30;horizontalStack=0;resizeParent=1;resizeParentMax=0;resizeLast=0;collapsible=1;marginBottom=0;whiteSpace=wrap;html=1;" vertex="1" parent="1">
          <mxGeometry x="330" y="320" width="140" height="120" as="geometry" />
        </mxCell>
        <mxCell id="7dIJsZSCZo2YdhMTKxo9-27" value="&lt;u&gt;IdNumber&lt;/u&gt;" style="text;strokeColor=none;fillColor=none;align=left;verticalAlign=middle;spacingLeft=4;spacingRight=4;overflow=hidden;points=[[0,0.5],[1,0.5]];portConstraint=eastwest;rotatable=0;whiteSpace=wrap;html=1;" vertex="1" parent="7dIJsZSCZo2YdhMTKxo9-19">
          <mxGeometry y="30" width="140" height="30" as="geometry" />
        </mxCell>
        <mxCell id="7dIJsZSCZo2YdhMTKxo9-28" value="Name" style="text;strokeColor=none;fillColor=none;align=left;verticalAlign=middle;spacingLeft=4;spacingRight=4;overflow=hidden;points=[[0,0.5],[1,0.5]];portConstraint=eastwest;rotatable=0;whiteSpace=wrap;html=1;" vertex="1" parent="7dIJsZSCZo2YdhMTKxo9-19">
          <mxGeometry y="60" width="140" height="30" as="geometry" />
        </mxCell>
        <mxCell id="7dIJsZSCZo2YdhMTKxo9-29" value="Description" style="text;strokeColor=none;fillColor=none;align=left;verticalAlign=middle;spacingLeft=4;spacingRight=4;overflow=hidden;points=[[0,0.5],[1,0.5]];portConstraint=eastwest;rotatable=0;whiteSpace=wrap;html=1;" vertex="1" parent="7dIJsZSCZo2YdhMTKxo9-19">
          <mxGeometry y="90" width="140" height="30" as="geometry" />
        </mxCell>
      </root>
    </mxGraphModel>
  </diagram>
</mxfile>
